PathFileType	4	(X/Y/Z)	/Users/itak/Documents/Research/Walk-IL/dataset/trc/00038_00004.trc
DataRate	CameraRate	NumFrames	NumMarkers	Units	OrigDataRate	OrigDataStartFrame	OrigNumFrames
100.000000	100.000000	4	53	mm	100.000000	196	524
Frame#	Time	RPSI			LPSI			L3			STRN			T10			C7			CLAV			RBAK			LBAK			LSHO			LUPA			LAEL			LAOL			LWTS			LWPS			LFRA			LIFD			LHPS			LHTS			RSHO			RUPA			RAEL			RAOL			RWTS			RWPS			RFRA			RIFD			RHTS			RHPS			RBHD			LFHD			RFHD			LBHD			LHIP			RHIP			RASI			LASI			LKNE			LTHI			LANK			LTIP			LTOE			LMT1			LMT5			LHEE			RKNE			RTHI			RANK			RTIP			RTOE			RMT1			RMT5			RHEE			
		X1	Y1	Z1	X2	Y2	Z2	X3	Y3	Z3	X4	Y4	Z4	X5	Y5	Z5	X6	Y6	Z6	X7	Y7	Z7	X8	Y8	Z8	X9	Y9	Z9	X10	Y10	Z10	X11	Y11	Z11	X12	Y12	Z12	X13	Y13	Z13	X14	Y14	Z14	X15	Y15	Z15	X16	Y16	Z16	X17	Y17	Z17	X18	Y18	Z18	X19	Y19	Z19	X20	Y20	Z20	X21	Y21	Z21	X22	Y22	Z22	X23	Y23	Z23	X24	Y24	Z24	X25	Y25	Z25	X26	Y26	Z26	X27	Y27	Z27	X28	Y28	Z28	X29	Y29	Z29	X30	Y30	Z30	X31	Y31	Z31	X32	Y32	Z32	X33	Y33	Z33	X34	Y34	Z34	X35	Y35	Z35	X36	Y36	Z36	X37	Y37	Z37	X38	Y38	Z38	X39	Y39	Z39	X40	Y40	Z40	X41	Y41	Z41	X42	Y42	Z42	X43	Y43	Z43	X44	Y44	Z44	X45	Y45	Z45	X46	Y46	Z46	X47	Y47	Z47	X48	Y48	Z48	X49	Y49	Z49	X50	Y50	Z50	X51	Y51	Z51	X52	Y52	Z52	X53	Y53	Z53	

197	1.96	-1133.013427734375	1071.29150390625	76.70298004150391	-1158.549438476562	1061.371826171875	-84.28799438476562	-1150.107299804688	1126.030395507812	-15.67910957336426	-922.8865966796875	1311.959838867188	-38.69143295288086	-1170.800170898438	1270.483642578125	-29.13931846618652	-1113.140625	1535.848022460938	-55.41901397705078	-960.36279296875	1439.070922851562	-47.37196350097656	-1170.209716796875	1404.927856445312	32.30414962768555	-1135.297729492188	1489.939697265625	-150.3946228027344	-1035.31689453125	1490.648193359375	-227.6500854492188	-1072.352294921875	1361.229370117188	-296.8307189941406	-1075.398315429688	1141.367553710938	-312.9073791503906	-1125.25390625	1133.440673828125	-219.005615234375	-983.2021484375	892.2592163085938	-250.7034149169922	-1061.87939453125	875.9107666015625	-288.3858032226562	-1063.335815429688	1026.434936523438	-313.6960754394531	-952.1018676757812	712.2980346679688	-221.3642272949219	-1028.240966796875	786.341552734375	-284.8026123046875	-962.1373901367188	798.2692260742188	-259.4496154785156	-1037.972900390625	1525.865600585938	120.5202026367188	-1055.277465820312	1458.268432617188	193.8560333251953	-1102.595581054688	1192.397827148438	225.8037567138672	-1101.123168945312	1161.659545898438	130.0397644042969	-986.806396484375	925.2820434570312	208.4216918945312	-1053.5673828125	917.177001953125	272.0704650878906	-1094.12744140625	1116.608276367188	244.0970001220703	-986.35009765625	740.5449829101562	197.3120422363281	-959.8916015625	815.8466796875	228.8096466064453	-1016.682434082031	816.0498046875	277.6684265136719	-1027.643676757812	1710.774780273438	-140.8626861572266	-886.0440063476562	1724.443969726562	24.58003044128418	-860.682373046875	1719.820190429688	-70.16010284423828	-1058.757446289062	1714.974243164062	0.4163722097873688	-1083.244018554688	952.4414672851562	-201.5405426025391	-1003.65869140625	961.1399536132812	164.9799041748047	-918.8773803710938	992.2152709960938	73.06269836425781	-954.8740844726562	996.8981323242188	-160.625732421875	-1063.385498046875	509.6756896972656	-133.3804931640625	-1077.8583984375	645.1614990234375	-173.3719024658203	-1192.359497070312	38.29872131347656	-88.90189361572266	-1162.964233398438	283.8396301269531	-126.5578002929688	-977.6561889648438	42.4218864440918	-13.85624217987061	-1036.438354492188	52.39772415161133	-1.7650545835495	-1067.907470703125	39.06221008300781	-104.8358612060547	-1263.693481445312	50.22815322875977	-38.65828704833984	-880.2161254882812	538.4887084960938	128.1841278076172	-946.4822387695312	803.8531494140625	154.8732452392578	-1118.577270507812	88.94183349609375	124.5908584594727	-924.8279418945312	410.6112060546875	134.6390228271484	-889.2642822265625	53.13783264160156	88.05271911621094	-951.7915649414062	66.25666809082031	56.57786560058594	-973.5623779296875	61.5427131652832	150.2478332519531	-1172.576416015625	98.01010894775391	76.94058227539062	
198	1.97	-1129.736694335938	1070.926391601562	76.84505462646484	-1155.850952148438	1061.195068359375	-84.00712585449219	-1147.1826171875	1125.98779296875	-15.51786041259766	-919.4656982421875	1311.7001953125	-38.77448272705078	-1167.546997070312	1270.429565429688	-29.34365272521973	-1109.504150390625	1535.676879882812	-55.86904144287109	-956.9352416992188	1438.83447265625	-47.53312301635742	-1166.943969726562	1404.928100585938	31.89599800109863	-1131.638427734375	1489.8056640625	-150.8694610595703	-1031.51611328125	1490.331176757812	-227.9477844238281	-1068.624267578125	1360.934936523438	-297.1404724121094	-1072.004760742188	1141.060180664062	-313.0785217285156	-1122.098999023438	1133.301879882812	-219.2940673828125	-980.379150390625	891.859375	-250.3582611083984	-1058.9287109375	875.6109008789062	-288.3135986328125	-1060.079467773438	1026.079833984375	-313.7243041992188	-949.5975341796875	711.859130859375	-220.8602600097656	-1025.417846679688	785.9982299804688	-284.5309448242188	-959.406494140625	797.8394775390625	-258.9627075195312	-1034.685302734375	1525.751708984375	120.1704483032227	-1052.218872070312	1458.242553710938	193.5120697021484	-1100.037841796875	1192.487182617188	225.5964965820312	-1098.485717773438	1161.68310546875	129.8561248779297	-984.0497436523438	925.2577514648438	208.3081512451172	-1051.010864257812	917.22900390625	272.0252075195312	-1091.638916015625	1116.650390625	243.9478759765625	-983.5772094726562	740.6492309570312	197.4180145263672	-957.223388671875	815.9547119140625	228.8937683105469	-1014.098388671875	816.1243896484375	277.6757507324219	-1022.952819824219	1710.35205078125	-141.5442199707031	-883.1036987304688	1724.094970703125	25.36655044555664	-856.73046875	1719.404663085938	-69.06919097900391	-1055.534301757812	1714.620727539062	-0.6482173800468445	-1081.088745117188	952.369873046875	-201.4686431884766	-999.70166015625	961.0684814453125	164.5701446533203	-915.4832153320312	992.1801147460938	72.25157928466797	-952.2404174804688	996.7163696289062	-161.4852294921875	-1062.260864257812	509.6910400390625	-134.0027923583984	-1076.368774414062	645.1758422851562	-173.4024353027344	-1192.441040039062	38.17031097412109	-88.96171569824219	-1162.696655273438	284.1205749511719	-126.6025924682617	-977.6033935546875	42.58526229858398	-14.16241455078125	-1036.292846679688	52.92733001708984	-2.024417877197266	-1067.961181640625	38.8437385559082	-105.1600570678711	-1263.646728515625	50.4206657409668	-38.65944671630859	-872.8700561523438	539.7373657226562	127.586051940918	-941.7183227539062	804.388427734375	154.4189147949219	-1105.91357421875	87.46720886230469	121.8439407348633	-916.1823120117188	411.4376525878906	133.4805450439453	-876.264404296875	53.34179306030273	85.50897216796875	-938.8516845703125	66.26206207275391	54.01128387451172	-960.633056640625	61.04450988769531	147.6394653320312	-1159.944091796875	96.39694213867188	74.11534118652344	
199	1.98	-1126.408081054688	1070.53271484375	77.00182342529297	-1153.049560546875	1060.98583984375	-83.72624206542969	-1144.1923828125	1125.928588867188	-15.34718799591064	-915.9701538085938	1311.398681640625	-38.81033706665039	-1164.2158203125	1270.366333007812	-29.53310585021973	-1105.7607421875	1535.494018554688	-56.31145477294922	-953.40478515625	1438.558471679688	-47.66287231445312	-1163.580810546875	1404.916381835938	31.49927711486816	-1127.853393554688	1489.649291992188	-151.3381500244141	-1027.580200195312	1489.978515625	-228.2237243652344	-1064.745483398438	1360.602294921875	-297.4304809570312	-1068.457763671875	1140.716186523438	-313.2138061523438	-1118.791748046875	1133.1259765625	-219.55126953125	-977.399169921875	891.4310913085938	-249.9510192871094	-1055.796020507812	875.2778930664062	-288.1883544921875	-1056.6494140625	1025.66259765625	-313.7186584472656	-947.00244140625	711.3462524414062	-220.2368927001953	-1022.40185546875	785.6286010742188	-284.2107238769531	-956.4830932617188	797.3848876953125	-258.4165344238281	-1031.294311523438	1525.627563476562	119.8386764526367	-1049.058227539062	1458.2138671875	193.1906890869141	-1097.376220703125	1192.572387695312	225.4248962402344	-1095.748046875	1161.700317382812	129.7058410644531	-981.2252807617188	925.2496337890625	208.2619171142578	-1048.364501953125	917.2843627929688	272.0220031738281	-1089.04736328125	1116.690063476562	243.8316192626953	-980.7685546875	740.7340087890625	197.5395965576172	-954.4935913085938	816.0362548828125	229.01416015625	-1011.450500488281	816.1898193359375	277.71630859375	-1018.08837890625	1709.910034179688	-142.1775970458984	-880.04736328125	1723.677612304688	26.22595977783203	-852.6260986328125	1718.928466796875	-67.89158630371094	-1052.154052734375	1714.251831054688	-1.698786020278931	-1078.784545898438	952.2706909179688	-201.3824920654297	-995.7591552734375	960.951904296875	164.2270660400391	-912.0535278320312	992.1043090820312	71.55256652832031	-949.5393676757812	996.5162963867188	-162.1655731201172	-1061.119750976562	509.7031555175781	-134.6039428710938	-1074.852416992188	645.2067260742188	-173.4489288330078	-1192.517944335938	38.05725860595703	-89.01241302490234	-1162.395263671875	284.4002380371094	-126.6633224487305	-977.5159912109375	42.74508666992188	-14.46250534057617	-1036.127807617188	53.47056198120117	-2.296801567077637	-1068.015014648438	38.64212417602539	-105.474365234375	-1263.613891601562	50.63947296142578	-38.63987350463867	-865.6514892578125	540.9763793945312	127.011100769043	-936.9625244140625	804.8814086914062	154.0159912109375	-1092.609619140625	85.70548248291016	118.9579849243164	-907.5133056640625	412.2518310546875	132.3582000732422	-862.5791625976562	53.43071365356445	83.12014007568359	-925.1797485351562	66.09013366699219	51.51779174804688	-947.0782470703125	60.37601852416992	145.0980834960938	-1146.559936523438	94.43968963623047	71.13714599609375	
200	1.99	-1123.029663085938	1070.113037109375	77.1636962890625	-1150.13525390625	1060.739868164062	-83.45604705810547	-1141.132690429688	1125.843994140625	-15.17769622802734	-912.401611328125	1311.05419921875	-38.79525375366211	-1160.810424804688	1270.286010742188	-29.70997619628906	-1101.917602539062	1535.293701171875	-56.74229049682617	-949.7738647460938	1438.240844726562	-47.75820159912109	-1160.125366210938	1404.882202148438	31.11298751831055	-1123.945922851562	1489.462890625	-151.7955169677734	-1023.514038085938	1489.584594726562	-228.47607421875	-1060.719848632812	1360.225708007812	-297.6977844238281	-1064.755981445312	1140.330200195312	-313.3109130859375	-1115.337280273438	1132.905883789062	-219.7785339355469	-974.2529296875	890.9716796875	-249.4853363037109	-1052.474731445312	874.9058837890625	-288.0080261230469	-1053.045166015625	1025.175659179688	-313.6786193847656	-944.3384399414062	710.7462768554688	-219.4906005859375	-1019.181579589844	785.2266845703125	-283.8388977050781	-953.3552856445312	796.9044799804688	-257.8101806640625	-1027.808349609375	1525.4853515625	119.5289993286133	-1045.8017578125	1458.171875	192.8953247070312	-1094.610107421875	1192.642822265625	225.2926330566406	-1092.904907226562	1161.697509765625	129.5937805175781	-978.3416137695312	925.2431030273438	208.2858123779297	-1045.632202148438	917.3321533203125	272.0632934570312	-1086.3505859375	1116.71875	243.7524871826172	-977.9236450195312	740.7900390625	197.6825714111328	-951.7138671875	816.0703125	229.1788024902344	-1008.738647460938	816.22998046875	277.80126953125	-1013.053283691406	1709.445678710938	-142.7630462646484	-876.8701782226562	1723.1884765625	27.15155982971191	-848.3785400390625	1718.383911132812	-66.6370849609375	-1048.613159179688	1713.860107421875	-2.726046562194824	-1076.320922851562	952.1388549804688	-201.2925109863281	-991.8497314453125	960.7914428710938	163.9559326171875	-908.5902709960938	991.986083984375	70.98085021972656	-946.7645263671875	996.2915649414062	-162.6642303466797	-1059.966552734375	509.7003173828125	-135.1702270507812	-1073.334228515625	645.25244140625	-173.5212707519531	-1192.589233398438	37.95908737182617	-89.05490875244141	-1162.075927734375	284.6795654296875	-126.7389678955078	-977.4002075195312	42.90198516845703	-14.75641250610352	-1035.971435546875	54.01296234130859	-2.584784984588623	-1068.067749023438	38.4576530456543	-105.7751083374023	-1263.595947265625	50.87817764282227	-38.59933471679688	-858.5563354492188	542.2048950195312	126.4731597900391	-932.219970703125	805.3322143554688	153.6733703613281	-1078.731567382812	83.73535919189453	115.9384384155273	-898.8238525390625	413.0577087402344	131.2790374755859	-848.28076171875	53.4379997253418	80.87044525146484	-910.8510131835938	65.78074645996094	49.09490966796875	-932.9857177734375	59.58823394775391	142.6238098144531	-1132.490356445312	92.2308349609375	68.01543426513672	
